<svg width="21" height="21" viewBox="0 0 21 21" fill="none" xmlns="http://www.w3.org/2000/svg">
<g id="hand 1" clip-path="url(#clip0_9_45)">
<g id="layer1">
<path id="path426" d="M6.35504 17.5237C8.07469 18.9124 9.79046 18.9818 11.5307 17.7329C12.0775 17.3405 12.1993 17.2175 14.6624 14.5694C16.1551 12.9646 17.048 11.988 17.105 11.8979C17.384 11.4566 17.376 10.8716 17.0849 10.4373C16.9916 10.2981 16.7014 10.0405 16.5931 10.0008C16.5429 9.98233 16.5577 9.95985 16.7712 9.73019C17.0487 9.43181 17.1672 9.21279 17.2262 8.88879C17.3267 8.33752 17.1506 7.80774 16.7435 7.43624C16.6436 7.34508 16.4964 7.23937 16.4164 7.20133C16.3364 7.16329 16.2602 7.12241 16.2471 7.1105C16.2341 7.09858 16.2755 7.00947 16.3393 6.91247C16.6744 6.40244 16.6713 5.70665 16.3314 5.17382C15.8869 4.47712 14.8905 4.29059 14.1493 4.76532C14.0591 4.82312 13.9006 4.96559 13.7684 5.10772L13.542 5.35114L13.4669 5.22172C13.3601 5.03788 13.0782 4.78467 12.87 4.68559C12.5418 4.52945 12.0872 4.50902 11.7483 4.63518C11.4 4.76482 11.4164 4.74909 9.63087 6.66651L7.97742 8.44207L7.98683 8.17486C8.00461 7.66983 7.97566 6.75625 7.93426 6.51601C7.87786 6.18867 7.7432 5.93564 7.51147 5.72155C7.0324 5.27896 6.3646 5.17128 5.83172 5.45068C5.65678 5.54242 5.42116 5.79498 5.31485 6.00472C5.21279 6.2061 5.1939 6.31005 5.09843 7.1954C5.0586 7.56485 4.98893 8.09909 4.94361 8.38259C4.87251 8.82735 4.40529 11.3422 4.20939 12.3346C4.0271 13.258 4.08365 14.0917 4.38546 14.9304C4.74975 15.9427 5.30891 16.6789 6.35503 17.5237L6.35504 17.5237ZM5.79386 15.6454C5.29934 14.9374 5.06244 14.246 5.03636 13.4345C5.024 13.0499 5.041 12.8994 5.17531 12.2045C5.79568 8.99493 5.99331 7.80393 6.06998 6.81285C6.09231 6.52427 6.14802 6.33999 6.22628 6.29581C6.35557 6.22283 6.4378 6.20998 6.57918 6.2407C6.76119 6.28025 6.94793 6.4344 7.00105 6.58897C7.09911 6.87424 7.08499 8.27472 6.9776 8.91398C6.90197 9.36422 6.93421 9.53101 7.13254 9.71545C7.33133 9.90032 7.55515 9.94759 7.81177 9.85889C7.94471 9.81294 7.94782 9.80977 9.95692 7.67195C12.2149 5.26938 12.0373 5.43328 12.3312 5.48045C12.4556 5.50042 12.4925 5.52186 12.5979 5.6353C12.7478 5.79669 12.7878 5.95753 12.7243 6.14442C12.682 6.26899 12.5998 6.3624 11.3122 7.74788L9.9449 9.21909L9.92553 9.34143C9.89402 9.54054 9.92938 9.6581 10.0563 9.77614C10.178 9.88929 10.2913 9.91771 10.4795 9.88232C10.5833 9.86281 10.6054 9.84017 12.6319 7.68351L14.6794 5.50441L14.8419 5.45498C15.2341 5.33566 15.6266 5.58875 15.6645 5.98553C15.6933 6.28684 15.8486 6.0947 13.6125 8.52425C11.6495 10.657 11.6012 10.7117 11.5749 10.828C11.5316 11.02 11.5684 11.1452 11.705 11.2698C11.8389 11.3919 12.0037 11.4311 12.1515 11.376C12.221 11.35 12.553 11.0118 13.7992 9.69746C15.1369 8.28656 15.374 8.04614 15.4587 8.0142C15.8552 7.86484 16.2406 8.08273 16.3208 8.50158C16.3786 8.80341 16.451 8.70817 14.7253 10.5994C13.2482 12.2182 13.1947 12.2799 13.171 12.3922C13.1438 12.5212 13.176 12.6403 13.2733 12.7711C13.3611 12.889 13.5961 12.9535 13.7562 12.9035C13.8702 12.8679 13.9217 12.8179 14.8581 11.8324L15.8405 10.7987L16.0003 10.8036C16.2632 10.8117 16.4284 11.0218 16.3757 11.2809L16.3506 11.404L13.8693 14.0563C11.4328 16.6605 11.383 16.712 11.1175 16.9028C10.3286 17.4694 9.76068 17.6878 9.06941 17.6903C8.42243 17.6926 7.74422 17.4197 7.01202 16.8624C6.63608 16.5763 6.00073 15.9416 5.79387 15.6454L5.79386 15.6454Z" fill="#606060"/>
</g>
</g>
<defs>
<clipPath id="clip0_9_45">
<rect width="12.726" height="15.9075" fill="white" transform="matrix(-0.732274 -0.68101 -0.68101 0.732274 20.152 8.6665)"/>
</clipPath>
</defs>
</svg>
