<svg width="18" height="16" viewBox="0 0 18 16" fill="none" xmlns="http://www.w3.org/2000/svg">
<g id="icon-coment">
<mask id="path-1-inside-1_19_86" fill="white">
<path fill-rule="evenodd" clip-rule="evenodd" d="M9 13C13.9706 13 18 10.0899 18 6.5C18 2.91015 13.9706 0 9 0C4.02944 0 0 2.91015 0 6.5C0 8.36123 1.08315 10.0397 2.81905 11.2247L1.74781 15.7508L8.43582 12.9874C8.6224 12.9958 8.81051 13 9 13Z"/>
</mask>
<path d="M2.81905 11.2247L3.79216 11.455L3.95045 10.7862L3.38283 10.3988L2.81905 11.2247ZM1.74781 15.7508L0.774698 15.5204L0.324958 17.4206L2.12968 16.675L1.74781 15.7508ZM8.43582 12.9874L8.48045 11.9884L8.25891 11.9785L8.05396 12.0632L8.43582 12.9874ZM17 6.5C17 7.89308 16.22 9.24438 14.7785 10.2855C13.3382 11.3257 11.2984 12 9 12V14C11.6721 14 14.1323 13.2192 15.9495 11.9069C17.7652 10.5955 19 8.69677 19 6.5H17ZM9 1C11.2984 1 13.3382 1.67431 14.7785 2.71449C16.22 3.75562 17 5.10692 17 6.5H19C19 4.30323 17.7652 2.40453 15.9495 1.09313C14.1323 -0.219232 11.6721 -1 9 -1V1ZM1 6.5C1 5.10692 1.77996 3.75562 3.22153 2.71449C4.66178 1.67431 6.70156 1 9 1V-1C6.32788 -1 3.86766 -0.219232 2.05055 1.09313C0.234762 2.40453 -1 4.30323 -1 6.5H1ZM3.38283 10.3988C1.83903 9.34495 1 7.94361 1 6.5H-1C-1 8.77884 0.32728 10.7345 2.25526 12.0506L3.38283 10.3988ZM2.72093 15.9811L3.79216 11.455L1.84593 10.9944L0.774698 15.5204L2.72093 15.9811ZM8.05396 12.0632L1.36595 14.8265L2.12968 16.675L8.81768 13.9117L8.05396 12.0632ZM9 12C8.82539 12 8.65215 11.9961 8.48045 11.9884L8.39119 13.9864C8.59264 13.9954 8.79564 14 9 14V12Z" fill="#606060" mask="url(#path-1-inside-1_19_86)"/>
</g>
</svg>
