<svg width="11" height="13" viewBox="0 0 11 13" fill="none" xmlns="http://www.w3.org/2000/svg">
<g id="icon-text 1" clip-path="url(#clip0_13_2)">
<g id="layer1">
<g id="text292">
<path id="path402" d="M11 0V3.51843H10.6749C10.4822 2.70673 10.2685 2.12512 10.0337 1.7736C9.79885 1.41568 9.47674 1.13127 9.06733 0.920351C8.83853 0.805308 8.43815 0.747785 7.86617 0.747785H6.95402V10.7758C6.95402 11.4405 6.98714 11.8559 7.05336 12.0221C7.12561 12.1883 7.26108 12.3353 7.45977 12.4631C7.66447 12.5846 7.94143 12.6453 8.29064 12.6453H8.69704V13H2.28489V12.6453H2.6913C3.04652 12.6453 3.33251 12.5782 3.54926 12.444C3.7058 12.3545 3.82923 12.2011 3.91954 11.9838C3.98576 11.8304 4.01887 11.4277 4.01887 10.7758V0.747785H3.13383C2.30898 0.747785 1.7099 0.933135 1.33662 1.30383C0.812806 1.82153 0.481662 2.55973 0.343183 3.51843H0V0H11Z" fill="#606060"/>
</g>
</g>
</g>
<defs>
<clipPath id="clip0_13_2">
<rect width="11" height="13" fill="white"/>
</clipPath>
</defs>
</svg>
