<svg width="16" height="16" viewBox="0 0 16 16" fill="none" xmlns="http://www.w3.org/2000/svg">
<g id="icon-plus 1" clip-path="url(#clip0_14_48)">
<g id="layer1">
<g id="g2010">
<g id="g1839">
<path id="path517" d="M7.99999 15.6349C12.2166 15.6349 15.6349 12.2166 15.6349 7.99999C15.6349 3.78335 12.2166 0.365082 7.99999 0.365082C3.78335 0.365082 0.365082 3.78335 0.365082 7.99999C0.365082 12.2166 3.78335 15.6349 7.99999 15.6349Z" fill="#252525" stroke="#353535" stroke-width="1.01173"/>
<g id="g1549">
<path id="rect1491" d="M11.1619 7.36761H4.8381C4.48884 7.36761 4.20572 7.65074 4.20572 7.99999C4.20572 8.34925 4.48884 8.63237 4.8381 8.63237H11.1619C11.5111 8.63237 11.7943 8.34925 11.7943 7.99999C11.7943 7.65074 11.5111 7.36761 11.1619 7.36761Z" fill="#666666"/>
<path id="rect1545" d="M8.63239 11.1619V4.8381C8.63239 4.48884 8.34926 4.20572 8.00001 4.20572C7.65075 4.20572 7.36763 4.48884 7.36763 4.8381V11.1619C7.36763 11.5111 7.65075 11.7943 8.00001 11.7943C8.34926 11.7943 8.63239 11.5111 8.63239 11.1619Z" fill="#666666"/>
</g>
</g>
</g>
</g>
</g>
<defs>
<clipPath id="clip0_14_48">
<rect width="16" height="16" fill="white"/>
</clipPath>
</defs>
</svg>
