<svg width="22" height="22" viewBox="0 0 22 22" fill="none" xmlns="http://www.w3.org/2000/svg">
<g id="icons8-sun 1" clip-path="url(#clip0_9_50)">
<path id="Vector" d="M10.9886 0.723295C10.7943 0.726331 10.6092 0.806309 10.4739 0.945674C10.3385 1.08504 10.264 1.27241 10.2667 1.46665V3.66665C10.2653 3.76383 10.2833 3.86031 10.3195 3.95049C10.3557 4.04066 10.4095 4.12274 10.4778 4.19194C10.546 4.26115 10.6273 4.3161 10.717 4.35361C10.8066 4.39112 10.9028 4.41043 11 4.41043C11.0972 4.41043 11.1934 4.39112 11.2831 4.35361C11.3727 4.3161 11.454 4.26115 11.5223 4.19194C11.5905 4.12274 11.6443 4.04066 11.6805 3.95049C11.7168 3.86031 11.7347 3.76383 11.7333 3.66665V1.46665C11.7347 1.36854 11.7163 1.27116 11.6794 1.18027C11.6424 1.08938 11.5876 1.00683 11.5181 0.937517C11.4487 0.868201 11.366 0.813526 11.275 0.776729C11.1841 0.739933 11.0867 0.721763 10.9886 0.723295ZM4.25105 3.51913C4.10529 3.51945 3.96293 3.5632 3.84214 3.64479C3.72136 3.72639 3.62762 3.84212 3.5729 3.97722C3.51819 4.11232 3.50497 4.26067 3.53494 4.40332C3.56491 4.54597 3.6367 4.67645 3.74116 4.77811L5.29663 6.33358C5.3642 6.40396 5.44514 6.46015 5.5347 6.49886C5.62426 6.53756 5.72064 6.55801 5.8182 6.55901C5.91577 6.56 6.01255 6.54151 6.10288 6.50463C6.1932 6.46775 6.27527 6.41322 6.34426 6.34423C6.41325 6.27524 6.46778 6.19318 6.50466 6.10285C6.54154 6.01252 6.56002 5.91574 6.55903 5.81818C6.55804 5.72062 6.53759 5.62423 6.49888 5.53467C6.46017 5.44511 6.40398 5.36418 6.33361 5.2966L4.77814 3.74113C4.70963 3.67071 4.62767 3.61477 4.53713 3.57663C4.44658 3.5385 4.3493 3.51894 4.25105 3.51913V3.51913ZM17.7261 3.51913C17.5355 3.52481 17.3547 3.60443 17.2219 3.74113L15.6664 5.2966C15.596 5.36418 15.5399 5.44511 15.5011 5.53467C15.4624 5.62423 15.442 5.72062 15.441 5.81818C15.44 5.91574 15.4585 6.01252 15.4954 6.10285C15.5322 6.19318 15.5868 6.27524 15.6558 6.34423C15.7248 6.41322 15.8068 6.46775 15.8972 6.50463C15.9875 6.54151 16.0843 6.55999 16.1818 6.559C16.2794 6.55801 16.3758 6.53756 16.4653 6.49885C16.5549 6.46015 16.6358 6.40396 16.7034 6.33358L18.2589 4.77811C18.3648 4.67511 18.4372 4.54249 18.4665 4.39764C18.4958 4.25279 18.4807 4.10247 18.4231 3.96638C18.3655 3.83028 18.2681 3.71476 18.1437 3.63495C18.0194 3.55514 17.8738 3.51477 17.7261 3.51913ZM11 5.86665C9.63857 5.86665 8.33288 6.40749 7.3702 7.37017C6.40751 8.33286 5.86668 9.63854 5.86668 11C5.86668 12.3614 6.40751 13.6671 7.3702 14.6298C8.33288 15.5925 9.63857 16.1333 11 16.1333C12.3615 16.1333 13.6671 15.5925 14.6298 14.6298C15.5925 13.6671 16.1333 12.3614 16.1333 11C16.1333 9.63854 15.5925 8.33286 14.6298 7.37017C13.6671 6.40749 12.3615 5.86665 11 5.86665V5.86665ZM1.46668 10.2667C1.3695 10.2653 1.27302 10.2832 1.18285 10.3195C1.09267 10.3557 1.01059 10.4095 0.94139 10.4777C0.872186 10.546 0.817232 10.6273 0.779724 10.7169C0.742216 10.8066 0.7229 10.9028 0.7229 11C0.7229 11.0972 0.742216 11.1934 0.779724 11.283C0.817232 11.3727 0.872186 11.454 0.94139 11.5222C1.01059 11.5905 1.09267 11.6443 1.18285 11.6805C1.27302 11.7167 1.3695 11.7347 1.46668 11.7333H3.66668C3.76385 11.7347 3.86033 11.7167 3.95051 11.6805C4.04069 11.6443 4.12276 11.5905 4.19197 11.5222C4.26117 11.454 4.31612 11.3727 4.35363 11.283C4.39114 11.1934 4.41046 11.0972 4.41046 11C4.41046 10.9028 4.39114 10.8066 4.35363 10.7169C4.31612 10.6273 4.26117 10.546 4.19197 10.4777C4.12276 10.4095 4.04069 10.3557 3.95051 10.3195C3.86033 10.2832 3.76385 10.2653 3.66668 10.2667H1.46668ZM18.3333 10.2667C18.2362 10.2653 18.1397 10.2832 18.0495 10.3195C17.9593 10.3557 17.8773 10.4095 17.8081 10.4777C17.7389 10.546 17.6839 10.6273 17.6464 10.7169C17.6089 10.8066 17.5896 10.9028 17.5896 11C17.5896 11.0972 17.6089 11.1934 17.6464 11.283C17.6839 11.3727 17.7389 11.454 17.8081 11.5222C17.8773 11.5905 17.9593 11.6443 18.0495 11.6805C18.1397 11.7167 18.2362 11.7347 18.3333 11.7333H20.5333C20.6305 11.7347 20.727 11.7167 20.8172 11.6805C20.9074 11.6443 20.9894 11.5905 21.0586 11.5222C21.1278 11.454 21.1828 11.3727 21.2203 11.283C21.2578 11.1934 21.2771 11.0972 21.2771 11C21.2771 10.9028 21.2578 10.8066 21.2203 10.7169C21.1828 10.6273 21.1278 10.546 21.0586 10.4777C20.9894 10.4095 20.9074 10.3557 20.8172 10.3195C20.727 10.2832 20.6305 10.2653 20.5333 10.2667H18.3333ZM5.80079 15.4444C5.61027 15.4501 5.42945 15.5297 5.29663 15.6664L3.74116 17.2219C3.67078 17.2894 3.61459 17.3704 3.57588 17.4599C3.53718 17.5495 3.51673 17.6459 3.51574 17.7434C3.51474 17.841 3.53323 17.9378 3.57011 18.0281C3.60699 18.1184 3.66152 18.2005 3.73051 18.2695C3.7995 18.3385 3.88156 18.393 3.97189 18.4299C4.06222 18.4668 4.159 18.4853 4.25656 18.4843C4.35412 18.4833 4.45051 18.4628 4.54007 18.4241C4.62963 18.3854 4.71056 18.3292 4.77814 18.2588L6.33361 16.7034C6.43957 16.6004 6.51195 16.4678 6.54126 16.3229C6.57056 16.1781 6.55542 16.0277 6.49782 15.8916C6.44023 15.7555 6.34286 15.64 6.21848 15.5602C6.0941 15.4804 5.94851 15.44 5.80079 15.4444ZM16.1777 15.4444C16.0319 15.4444 15.8893 15.488 15.7683 15.5695C15.6473 15.6509 15.5533 15.7667 15.4984 15.9018C15.4435 16.037 15.4302 16.1854 15.4601 16.3282C15.49 16.471 15.5619 16.6016 15.6664 16.7034L17.2219 18.2588C17.2895 18.3292 17.3704 18.3854 17.46 18.4241C17.5495 18.4628 17.6459 18.4833 17.7435 18.4843C17.841 18.4853 17.9378 18.4668 18.0281 18.4299C18.1185 18.393 18.2005 18.3385 18.2695 18.2695C18.3385 18.2005 18.393 18.1184 18.4299 18.0281C18.4668 17.9378 18.4853 17.841 18.4843 17.7434C18.4833 17.6459 18.4628 17.5495 18.4241 17.4599C18.3854 17.3704 18.3292 17.2894 18.2589 17.2219L16.7034 15.6664C16.6351 15.5961 16.5533 15.5403 16.463 15.5022C16.3728 15.464 16.2758 15.4444 16.1777 15.4444V15.4444ZM10.9886 17.59C10.7943 17.593 10.6092 17.673 10.4739 17.8123C10.3385 17.9517 10.264 18.1391 10.2667 18.3333V20.5333C10.2653 20.6305 10.2833 20.727 10.3195 20.8172C10.3557 20.9073 10.4095 20.9894 10.4778 21.0586C10.546 21.1278 10.6273 21.1828 10.717 21.2203C10.8066 21.2578 10.9028 21.2771 11 21.2771C11.0972 21.2771 11.1934 21.2578 11.2831 21.2203C11.3727 21.1828 11.454 21.1278 11.5223 21.0586C11.5905 20.9894 11.6443 20.9073 11.6805 20.8172C11.7168 20.727 11.7347 20.6305 11.7333 20.5333V18.3333C11.7347 18.2352 11.7163 18.1378 11.6794 18.0469C11.6424 17.956 11.5876 17.8735 11.5181 17.8042C11.4487 17.7349 11.366 17.6802 11.275 17.6434C11.1841 17.6066 11.0867 17.5884 10.9886 17.59V17.59Z" fill="#353535"/>
</g>
<defs>
<clipPath id="clip0_9_50">
<rect width="22" height="22" fill="white"/>
</clipPath>
</defs>
</svg>
