<svg width="19" height="17" viewBox="0 0 19 17" fill="none" xmlns="http://www.w3.org/2000/svg">
<g id="icon-eraser">
<path id="Vector 10" d="M19 16H2" stroke="#606060"/>
<g id="Group 18">
<path id="Vector 11" d="M13.8147 8.38833C11.0844 5.58018 7.65782 2.05601 7.05746 1.43855C6.2852 0.644292 5.34133 1.10761 4.96593 1.43855C4.10786 2.32106 2.19866 4.28465 1.4264 5.07891C0.654144 5.87317 1.10463 6.84394 1.4264 7.23004L8.02279 14.0143M13.8147 8.38833C14.5966 9.19243 15.3213 9.93783 15.9063 10.5395C16.3889 10.9256 17.2255 11.8963 16.7107 12.6906C16.1959 13.4848 14.5655 15.2278 13.8147 16H9.95344L8.02279 14.0143M13.8147 8.38833L8.02279 14.0143" stroke="#606060"/>
</g>
</g>
</svg>
