<svg width="16" height="18" viewBox="0 0 16 18" fill="none" xmlns="http://www.w3.org/2000/svg">
<g id="icon-download">
<path id="Vector 12" d="M1 17H14.4737" stroke="#333333" stroke-width="2" stroke-linecap="round"/>
<path id="Arrow 1" d="M8.73685 1C8.73685 0.447715 8.28913 0 7.73685 0C7.18456 0 6.73685 0.447715 6.73685 1L8.73685 1ZM7.02974 14.3387C7.42026 14.7292 8.05343 14.7292 8.44395 14.3387L14.8079 7.97473C15.1984 7.5842 15.1984 6.95104 14.8079 6.56051C14.4174 6.16999 13.7842 6.16999 13.3937 6.56051L7.73685 12.2174L2.07999 6.56051C1.68947 6.16999 1.0563 6.16999 0.665779 6.56051C0.275255 6.95104 0.275255 7.5842 0.665779 7.97473L7.02974 14.3387ZM6.73685 1L6.73685 13.6316H8.73685V1L6.73685 1Z" fill="#353535"/>
</g>
</svg>
